<?xml version="1.0" encoding="UTF-8"?>
<svg width="80px" height="80px" viewBox="0 0 80 80" version="1.1" xmlns="http://www.w3.org/2000/svg" xmlns:xlink="http://www.w3.org/1999/xlink">
    <!-- Generator: Sketch 51.3 (57544) - http://www.bohemiancoding.com/sketch -->
    <title>Group 13</title>
    <desc>Created with Sketch.</desc>
    <defs></defs>
    <g id="Page-1" stroke="none" stroke-width="1" fill="none" fill-rule="evenodd">
        <g id="Desktop-HD" transform="translate(-490.000000, -1361.000000)">
            <g id="Các-tính-năng-của-MEDPRO" transform="translate(270.000000, 826.000000)">
                <g id="Group-12" transform="translate(40.000000, 265.000000)">
                    <g id="Left">
                        <g id="Group-15-Copy-5" transform="translate(0.000000, 270.000000)">
                            <g id="Group-14">
                                <g id="Group-13" transform="translate(180.000000, 0.000000)">
                                    <circle id="Oval" fill="#EAEFF6" cx="40" cy="40" r="40"></circle>
                                    <g id="chat" transform="translate(17.000000, 18.000000)" fill-rule="nonzero">
                                        <path d="M38.5714286,15.2108036 L38.5714286,32.1991071 C38.5714286,34.3872321 36.7979464,36.1607143 34.610625,36.1607143 L17.6785714,36.1607143 L9.64285714,45 L9.64285714,36.1607143 L3.96080357,36.1607143 C1.77348214,36.1607143 0,34.3872321 0,32.1999107 L0,15.2116071 C0,13.0234821 1.77348214,11.25 3.96080357,11.25 L34.6098214,11.25 C36.7979464,11.25 38.5714286,13.0234821 38.5714286,15.2108036 Z" id="Path" fill="#0391FD"></path>
                                        <path d="M42.6463393,0 L11.9965179,0 C9.80919643,0 8.03571429,1.77348214 8.03571429,3.96160714 L8.03571429,11.25 L34.610625,11.25 C36.7979464,11.25 38.5714286,13.0234821 38.5714286,15.2116071 L38.5714286,24.9107143 L42.6463393,24.9107143 C44.8336607,24.9107143 46.6071429,23.1372321 46.6071429,20.9491071 L46.6071429,3.96160714 C46.6071429,1.77348214 44.8336607,0 42.6463393,0 Z" id="Path" fill="#0F71D3"></path>
                                        <path d="M20.0892857,20.1013393 L8.83928571,20.1013393 C8.39491071,20.1013393 8.03571429,19.7413393 8.03571429,19.2977679 C8.03571429,18.8541964 8.39491071,18.4941964 8.83928571,18.4941964 L20.0892857,18.4941964 C20.5336607,18.4941964 20.8928571,18.8541964 20.8928571,19.2977679 C20.8928571,19.7413393 20.5336607,20.1013393 20.0892857,20.1013393 Z" id="Path" fill="#FFFFFF"></path>
                                        <path d="M30.5357143,24.9227679 L8.83928571,24.9227679 C8.39491071,24.9227679 8.03571429,24.5627679 8.03571429,24.1191964 C8.03571429,23.675625 8.39491071,23.315625 8.83928571,23.315625 L30.5357143,23.315625 C30.9800893,23.315625 31.3392857,23.675625 31.3392857,24.1191964 C31.3392857,24.5627679 30.9800893,24.9227679 30.5357143,24.9227679 Z" id="Path" fill="#FFFFFF"></path>
                                        <path d="M30.5357143,29.7441964 L8.83928571,29.7441964 C8.39491071,29.7441964 8.03571429,29.3841964 8.03571429,28.940625 C8.03571429,28.4970536 8.39491071,28.1370536 8.83928571,28.1370536 L30.5357143,28.1370536 C30.9800893,28.1370536 31.3392857,28.4970536 31.3392857,28.940625 C31.3392857,29.3841964 30.9800893,29.7441964 30.5357143,29.7441964 Z" id="Path" fill="#FFFFFF"></path>
                                    </g>
                                </g>
                            </g>
                        </g>
                    </g>
                </g>
            </g>
        </g>
    </g>
</svg>