<?xml version="1.0" encoding="UTF-8"?>
<svg width="80px" height="80px" viewBox="0 0 80 80" version="1.1" xmlns="http://www.w3.org/2000/svg" xmlns:xlink="http://www.w3.org/1999/xlink">
    <!-- Generator: Sketch 51.3 (57544) - http://www.bohemiancoding.com/sketch -->
    <title>Group 13</title>
    <desc>Created with Sketch.</desc>
    <defs></defs>
    <g id="Page-1" stroke="none" stroke-width="1" fill="none" fill-rule="evenodd">
        <g id="Desktop-HD" transform="translate(-1350.000000, -1621.000000)">
            <g id="Các-tính-năng-của-MEDPRO" transform="translate(270.000000, 826.000000)">
                <g id="Group-12" transform="translate(40.000000, 265.000000)">
                    <g id="Right" transform="translate(1040.000000, 0.000000)">
                        <g id="Group-15-Copy-4" transform="translate(0.000000, 530.000000)">
                            <g id="Group-14">
                                <g id="Group-13">
                                    <path d="M40,80 C62.09139,80 80,62.09139 80,40 C80,31.7315902 77.4912362,24.0491336 73.1933819,17.6723036 C66.0083058,7.01163281 53.8229802,0 40,0 C17.90861,0 0,17.90861 0,40 C0,62.09139 17.90861,80 40,80 Z" id="Oval" fill="#EAEFF6"></path>
                                    <g id="check" transform="translate(18.000000, 18.000000)" fill-rule="nonzero">
                                        <path d="M5.07362361,10.3041458 L5.07362361,2.54505155 C5.07362361,1.13948824 6.21208195,0 7.61764526,0 L29.3173599,0 C30.8403396,0 32.0742417,1.23493192 32.0742417,2.75791166 L32.0742417,15.9421921" id="Path" fill="#FF491F"></path>
                                        <polyline id="Path" fill="#2D303B" points="7.75428768 3.59905245 5.07328031 3.59905245 5.07328031 6.94335938 32.074585 6.94335938 32.074585 3.59905245 10.0463105 3.59905245"></polyline>
                                        <path d="M44.5011521,13.5619355 L44.5011521,34.8057175 C44.5011521,36.6043853 43.0423736,38.0631638 41.2437058,38.0631638 L3.3013916,38.0631638 C1.50169377,38.0631638 0.0439453125,36.6043853 0.0439453125,34.8057175 L0.0439453125,13.5619355 C0.0439453125,11.7629242 1.50169377,10.3041458 3.3013916,10.3041458 L41.2437058,10.3041458 C43.0423736,10.3041458 44.5011521,11.7629242 44.5011521,13.5619355 Z" id="Path" fill="#3C3F4D"></path>
                                        <path d="M4.79244234,24.1836548 C4.79244234,25.2249527 3.94855497,26.06884 2.90725708,26.06884 C1.86630249,26.06884 1.02207182,25.2249527 1.02207182,24.1836548 C1.02207182,23.1427002 1.86630249,22.2984695 2.90725708,22.2984695 C3.94855497,22.2984695 4.79244234,23.1427002 4.79244234,24.1836548 Z" id="Path" fill="#2D303B"></path>
                                        <path d="M34.7679519,18.0615234 L34.7679519,38.0631638 L13.5911179,38.0631638 L13.5911179,18.0615234 C13.5911179,16.6690063 13.026352,15.4083252 12.1141433,14.4950867 C11.2009048,13.5828781 9.93919377,13.0181122 8.54667668,13.0181122 L29.7245407,13.0181122 C32.5099182,13.0181122 34.7679519,15.276146 34.7679519,18.0615234 Z" id="Path" fill="#2D303B"></path>
                                        <path d="M38.8019943,33.7060547 L38.8019943,14.6612549 C38.8019943,13.7538528 38.0662537,13.0181122 37.1585083,13.0181122 L7.41439819,13.0181122 C6.50665283,13.0181122 5.77125545,13.7538528 5.77125545,14.6612549 L5.77125545,33.7060547 C5.77125545,34.6134567 6.50699613,35.3491973 7.41439819,35.3491973 L37.1585083,35.3491973 C38.0662537,35.3491973 38.8019943,34.6134567 38.8019943,33.7060547 Z" id="Path" fill="#C4E2F2"></path>
                                        <polygon id="Path" fill="#83B2C6" points="10.7205963 13.0181122 31.0078811 13.0181122 31.0078811 35.3491973 10.7205963 35.3491973"></polygon>
                                        <path d="M41.7761993,27.3010254 C41.3964844,27.3010254 41.0885239,26.9930649 41.0885239,26.6133499 L41.0885239,21.7539597 C41.0885239,21.3742447 41.3964844,21.0666275 41.7761993,21.0666275 C42.1559143,21.0666275 42.4638748,21.3742447 42.4638748,21.7539597 L42.4638748,26.6133499 C42.4638748,26.9930649 42.1559143,27.3010254 41.7761993,27.3010254 Z" id="Path" fill="#2D303B"></path>
                                        <path d="M36.0509491,18.0615234 L36.0509491,45 L32.5222778,42.9829788 L28.9925766,45 L25.462532,42.9829788 L21.9338608,45 L18.4038162,42.9829788 L14.874115,45 L14.874115,18.0615234 C14.874115,16.6690063 14.3093491,15.4083252 13.3971405,14.4950867 C12.4839019,13.5828781 11.2225342,13.0181122 9.82967379,13.0181122 L31.0075378,13.0181122 C33.7929153,13.0181122 36.0509491,15.2764893 36.0509491,18.0615234 Z" id="Path" fill="#E6E6E6"></path>
                                        <path d="M36.0509491,18.0615234 L36.0509491,18.5548782 L14.874115,18.5548782 L14.874115,18.0615234 C14.874115,16.6690063 14.3093491,15.4083252 13.3971405,14.4950867 C12.4839019,13.5828781 11.2225342,13.0181122 9.82967379,13.0181122 L31.0075378,13.0181122 C33.7929153,13.0181122 36.0509491,15.2764893 36.0509491,18.0615234 Z" id="Path" fill="#CCCCCC"></path>
                                        <g id="Group" transform="translate(16.171875, 15.205078)" fill="#3C3F4D">
                                            <path d="M4.58713529,8.28987117 L1.65309908,8.28987117 C1.27338407,8.28987117 0.965423584,7.98225398 0.965423584,7.60253906 C0.965423584,7.22248075 1.27338407,6.91486356 1.65309908,6.91486356 L4.58713529,6.91486356 C4.9668503,6.91486356 5.27481079,7.22248075 5.27481079,7.60253906 C5.27481079,7.98225398 4.9668503,8.28987117 4.58713529,8.28987117 Z" id="Path"></path>
                                            <path d="M17.1475982,8.28987117 L7.6124954,8.28987117 C7.23278048,8.28987117 6.9248199,7.98225398 6.9248199,7.60253906 C6.9248199,7.22248075 7.23278048,6.91486356 7.6124954,6.91486356 L17.1475982,6.91486356 C17.5273132,6.91486356 17.8352737,7.22248075 17.8352737,7.60253906 C17.8352737,7.98225398 17.5273132,8.28987117 17.1475982,8.28987117 Z" id="Path"></path>
                                            <path d="M4.58713529,4.85733032 L1.65309908,4.85733032 C1.27338407,4.85733032 0.965423584,4.54936983 0.965423584,4.16965482 C0.965423584,3.7899399 1.27338407,3.48197941 1.65309908,3.48197941 L4.58713529,3.48197941 C4.9668503,3.48197941 5.27481079,3.7899399 5.27481079,4.16965482 C5.27481079,4.54936983 4.9668503,4.85733032 4.58713529,4.85733032 Z" id="Path"></path>
                                            <path d="M17.1475982,4.85733032 L7.6124954,4.85733032 C7.23278048,4.85733032 6.9248199,4.54936983 6.9248199,4.16965482 C6.9248199,3.7899399 7.23278048,3.48197941 7.6124954,3.48197941 L17.1475982,3.48197941 C17.5273132,3.48197941 17.8352737,3.7899399 17.8352737,4.16965482 C17.8352737,4.54936983 17.5273132,4.85733032 17.1475982,4.85733032 Z" id="Path"></path>
                                            <path d="M3.6701202,1.42478947 L0.736427285,1.42478947 C0.356369062,1.42478947 0.048751875,1.1168289 0.048751875,0.737113975 C0.048751875,0.357398965 0.356369062,0.0497817773 0.736427285,0.0497817773 L3.6701202,0.0497817773 C4.04983521,0.0497817773 4.35779569,0.357398965 4.35779569,0.737113975 C4.35779569,1.1168289 4.04983521,1.42478947 3.6701202,1.42478947 Z" id="Path"></path>
                                            <path d="M16.2305832,1.42478947 L6.69582369,1.42478947 C6.31576538,1.42478947 6.00814819,1.1168289 6.00814819,0.737113975 C6.00814819,0.357398965 6.31576538,0.0497817773 6.69582369,0.0497817773 L16.2305832,0.0497817773 C16.6102981,0.0497817773 16.9182587,0.357398965 16.9182587,0.737113975 C16.9182587,1.1168289 16.6106415,1.42478947 16.2305832,1.42478947 Z" id="Path"></path>
                                            <path d="M4.58713529,11.7388916 L1.65309908,11.7388916 C1.27338407,11.7388916 0.965423584,11.4309311 0.965423584,11.0512161 C0.965423584,10.6715012 1.27338407,10.3635406 1.65309908,10.3635406 L4.58713529,10.3635406 C4.9668503,10.3635406 5.27481079,10.6715012 5.27481079,11.0512161 C5.27481079,11.4309311 4.9668503,11.7388916 4.58713529,11.7388916 Z" id="Path"></path>
                                            <path d="M17.1475982,11.7388916 L7.6124954,11.7388916 C7.23278048,11.7388916 6.9248199,11.4309311 6.9248199,11.0512161 C6.9248199,10.6715012 7.23278048,10.3635406 7.6124954,10.3635406 L17.1475982,10.3635406 C17.5273132,10.3635406 17.8352737,10.6715012 17.8352737,11.0512161 C17.8352737,11.4309311 17.5273132,11.7388916 17.1475982,11.7388916 Z" id="Path"></path>
                                            <path d="M4.58713529,15.1875686 L1.65309908,15.1875686 C1.27338407,15.1875686 0.965423584,14.8796082 0.965423584,14.4998931 C0.965423584,14.1201782 1.27338407,13.8122177 1.65309908,13.8122177 L4.58713529,13.8122177 C4.9668503,13.8122177 5.27481079,14.1201782 5.27481079,14.4998931 C5.27481079,14.8796082 4.9668503,15.1875686 4.58713529,15.1875686 Z" id="Path"></path>
                                            <path d="M17.1475982,15.1875686 L7.6124954,15.1875686 C7.23278048,15.1875686 6.9248199,14.8796082 6.9248199,14.4998931 C6.9248199,14.1201782 7.23278048,13.8122177 7.6124954,13.8122177 L17.1475982,13.8122177 C17.5273132,13.8122177 17.8352737,14.1201782 17.8352737,14.4998931 C17.8352737,14.8796082 17.5273132,15.1875686 17.1475982,15.1875686 Z" id="Path"></path>
                                            <path d="M11.5552139,22.2174454 C11.5552139,21.7858887 11.4408875,21.3594819 11.1655426,21.0206223 C10.9283066,20.7287979 10.6024932,20.5258941 10.265007,20.3689956 C10.179863,20.3295136 10.0940323,20.292778 10.0071716,20.2574158 C9.97043607,20.2426529 9.88288875,20.2261734 9.86778264,20.1939011 C9.84477999,20.1458359 9.86778264,20.0328827 9.86778264,19.9806977 C9.86778264,19.6902466 9.86778264,19.3997955 9.86778264,19.1093445 C9.86778264,18.8951111 9.86778264,18.6808777 9.86778264,18.4666443 C10.1393509,18.5057831 10.3697205,18.618393 10.613823,18.7347793 C10.8009338,18.8240433 10.9969712,18.8425827 11.1586762,18.6874008 C11.3008118,18.5507583 11.3897324,18.3210754 11.3811493,18.1240082 C11.3715362,17.9066849 11.2009048,17.7552795 11.0220337,17.6588059 C10.7988739,17.5382996 10.5444717,17.4765015 10.295906,17.4349594 C10.1675034,17.4136734 10.0270844,17.4181366 9.90142822,17.3886108 C9.86469267,17.3796845 9.87911227,17.392044 9.86778264,17.3693848 C9.86160278,17.3577118 9.86778264,17.3206329 9.86778264,17.3075867 C9.86778264,17.2588349 9.86743925,17.2104263 9.85645292,17.1627045 C9.79534151,16.8918228 9.4925308,16.7393875 9.23847196,16.8509674 C9.11693575,16.9041824 9.02320857,17.0112991 8.98647311,17.1386719 C8.9730835,17.1860504 8.96999361,17.2337723 8.96965031,17.2825241 C8.96930692,17.30896 8.98303983,17.3831177 8.96965031,17.4044037 C8.95385742,17.429123 8.86974337,17.4315262 8.8347244,17.4387359 C8.77155302,17.4517822 8.70906832,17.4665451 8.64692684,17.4833679 C8.52779391,17.5159836 8.41072078,17.555809 8.29742432,17.6049042 C8.08044434,17.6986313 7.87651066,17.8253174 7.70622258,17.9904556 C7.31449125,18.3694839 7.16445923,18.9157104 7.20634465,19.4499207 C7.24685669,19.9638748 7.50915527,20.390625 7.92835233,20.6834793 C8.12541964,20.8214951 8.34274292,20.9289551 8.56349947,21.0230255 C8.67679594,21.071434 8.79180908,21.1164093 8.90716553,21.1603546 C8.96896362,21.1837006 8.96381376,21.1706543 8.96965031,21.2200928 C8.98303983,21.3344192 8.96965031,21.4587021 8.96965031,21.5733719 L8.96965031,22.1285248 L8.96965031,23.0736923 L8.96965031,23.1279373 C8.63353731,23.0695725 8.34720609,22.9051208 8.08010104,22.6998139 C7.91736601,22.574501 7.7189255,22.3791504 7.49336238,22.4282456 C7.20874784,22.4907303 7.00378418,22.865982 7.02816012,23.1416702 C7.05081938,23.3943558 7.23999023,23.6065293 7.4298477,23.7575913 C7.70759578,23.9790344 8.04714205,24.1197968 8.3901215,24.2028809 C8.48796847,24.2265701 8.58684542,24.2454529 8.68675236,24.2595291 C8.73928072,24.2670822 8.95145414,24.2639923 8.96965031,24.2990112 C8.97754667,24.3144607 8.96896362,24.3515396 8.96999361,24.3704224 C8.97239689,24.4174576 8.97994995,24.4624329 8.99608614,24.5067215 C9.02835844,24.5956421 9.08878324,24.6697998 9.16362765,24.726448 C9.45785522,24.9489212 9.8591995,24.6941757 9.86778264,24.3529129 C9.86812594,24.3292236 9.86400606,24.3027878 9.86778264,24.2794419 C9.874649,24.2330933 9.85507963,24.2533493 9.89181519,24.23275 C9.96047974,24.1942978 10.071373,24.1891479 10.147934,24.164772 C10.2941895,24.1184234 10.4359817,24.059372 10.5705642,23.9859009 C11.2269974,23.6264419 11.5552139,22.9524994 11.5552139,22.2174454 Z M8.37810519,19.1560364 C8.37810519,18.8085937 8.66134644,18.6036301 8.96965031,18.5191726 L8.96965031,19.8629379 C8.66340633,19.7266387 8.37810519,19.5237351 8.37810519,19.1560364 Z M9.86778264,23.0719757 C9.86778264,22.5683212 9.86778264,22.0643234 9.86778264,21.5606689 C10.1637268,21.7268372 10.3721237,21.9771194 10.3769302,22.3290253 C10.3817368,22.674408 10.1867295,22.9466629 9.86778264,23.0719757 Z" id="Shape"></path>
                                            <path d="M9.41871639,24.828415 C9.21134953,24.8301316 9.02458195,24.6876526 8.96587374,24.4885254 C8.95248413,24.4435501 8.95729061,24.3968582 8.94664767,24.3525696 C8.93428805,24.3000412 8.95111084,24.3099976 8.88278959,24.3045044 C8.7595367,24.2945481 8.6369705,24.2780686 8.51577759,24.2543793 C8.12061308,24.1771316 7.72510526,24.0260696 7.40993502,23.7709809 C7.20394137,23.604126 6.99348445,23.3589936 7.00378418,23.0771255 C7.01511381,22.7626419 7.30247502,22.3125458 7.66605375,22.4107361 C7.88818359,22.4708176 8.06465145,22.6678848 8.24935913,22.7962876 C8.46050265,22.9432297 8.69293213,23.0524063 8.94664767,23.1004715 C8.94664767,22.5188828 8.94664767,21.9376373 8.94664767,21.3560486 C8.94664767,21.3165664 8.95488741,21.2674713 8.94664767,21.2290191 C8.93703463,21.1823272 8.92536161,21.191597 8.86905668,21.170311 C8.67267606,21.09581 8.47732544,21.018219 8.28918457,20.9241485 C7.89299016,20.7263946 7.52597807,20.4465866 7.33371732,20.0366592 C7.12223051,19.5851899 7.12566378,19.0169907 7.30693819,18.5559082 C7.48306274,18.1085586 7.84629826,17.7772522 8.28197481,17.5863647 C8.40385441,17.5331497 8.53019719,17.4902344 8.65894315,17.4559021 C8.72280123,17.4390793 8.78768921,17.4243164 8.85257719,17.4116135 C8.8659668,17.4088669 8.93703463,17.4054336 8.94664767,17.3944473 C8.95248413,17.3875808 8.94664767,17.3456955 8.94664767,17.3371124 C8.94664767,17.0971298 9.04518123,16.87294 9.29718018,16.8056488 C9.5543289,16.7373276 9.82521053,16.9038391 9.88048556,17.1640777 C9.88975529,17.208023 9.89044189,17.2519683 9.8907852,17.2966003 C9.8907852,17.3065567 9.88494873,17.3477554 9.8907852,17.3563385 C9.90177152,17.3724746 9.95361328,17.3690415 9.97798922,17.3711014 C10.1321411,17.3848343 10.2859497,17.4061203 10.4376983,17.4373627 C10.8421326,17.5207901 11.4824295,17.7240371 11.3945389,18.2534409 C11.3608933,18.454628 11.258583,18.6784744 11.0721588,18.7800979 C10.81501,18.9201736 10.5657578,18.7251663 10.3340149,18.6235428 C10.1922226,18.5617447 10.0439072,18.5171128 9.8907852,18.4930801 L9.8907852,19.5834732 L9.8907852,20.1386261 C9.8907852,20.1485825 9.88563533,20.1739883 9.8907852,20.1825714 C9.90726469,20.2096939 10.0092315,20.2333832 10.0401306,20.2460861 C10.179863,20.3037644 10.3178787,20.3662491 10.4514312,20.4369736 C11.024437,20.7408142 11.4570236,21.2115097 11.554184,21.8706894 C11.6492844,22.5178528 11.4865494,23.2206345 11.0110474,23.6878967 C10.7504654,23.9440155 10.4177856,24.1143036 10.0679397,24.2124939 C10.0243378,24.2248535 9.95532987,24.2286301 9.91653442,24.2506027 C9.88117216,24.2705154 9.8907852,24.2643357 9.8907852,24.3144607 C9.89044189,24.3862153 9.88597872,24.4548798 9.86022949,24.5228577 C9.79122164,24.7044754 9.61269381,24.828415 9.41871639,24.828415 Z M7.5671768,22.4430084 C7.33200073,22.4430084 7.16068266,22.6867676 7.08995821,22.8852081 C7.02781682,23.0589294 7.04395292,23.2285308 7.13184354,23.3895493 C7.34779354,23.7823105 7.81505587,24.0123367 8.22635648,24.1362763 C8.37226863,24.1802216 8.52161405,24.2124939 8.67233276,24.2344666 C8.74477389,24.2451096 8.81755831,24.2533493 8.89068604,24.2591858 C8.90476225,24.2602158 8.96999361,24.2543793 8.98166654,24.2653656 C8.99608614,24.2787552 8.98887639,24.2725754 8.99265287,24.3027878 C9.00672908,24.423294 9.00604248,24.522171 9.08843994,24.6231079 C9.1711807,24.7240448 9.28379057,24.7834397 9.4152832,24.7817231 C9.65423584,24.7789765 9.83825684,24.5922089 9.84477999,24.3549729 C9.84546659,24.3240738 9.8434067,24.2931748 9.84477999,24.2626191 C9.84752657,24.2097473 9.8440933,24.2197037 9.90177152,24.2070007 C10.0250244,24.1795349 10.146904,24.1441726 10.265007,24.099884 C10.687294,23.9405823 11.0570527,23.6566543 11.2798691,23.2597732 C11.5164185,22.8385162 11.5813064,22.3190689 11.5033721,21.8456269 C11.4268112,21.3811111 11.1741257,20.9897232 10.7992172,20.7092285 C10.6203461,20.5753326 10.4225922,20.4675293 10.2200317,20.3741455 C10.1156616,20.3264236 10.0095749,20.2824783 9.90245821,20.240593 C9.84924316,20.2196503 9.85267635,20.2313232 9.84477999,20.1894379 C9.82624052,20.0929642 9.84477999,19.9741745 9.84477999,19.8763276 C9.84477999,19.7060395 9.84477999,19.5357514 9.84477999,19.3654633 C9.84477999,19.0746689 9.84477999,18.7835312 9.84477999,18.4923935 C9.84477999,18.474884 9.84477999,18.4573746 9.84477999,18.4398652 C10.1376343,18.4814072 10.3779602,18.5998535 10.6419754,18.7220764 C10.9039307,18.8436127 11.1373901,18.7553787 11.2671661,18.4996033 C11.3567734,18.322792 11.4044952,18.0944824 11.291542,17.9173279 C11.1559296,17.7037812 10.8802414,17.6014709 10.6488418,17.5352097 C10.4981231,17.4922944 10.3439712,17.4624253 10.188446,17.4411392 C10.1108551,17.4301529 10.0325776,17.4215698 9.95429988,17.4153901 C9.93644719,17.4136734 9.86881254,17.4181366 9.85576632,17.4081802 C9.83997343,17.396164 9.84786987,17.3965073 9.84477999,17.3697281 C9.83310697,17.2608948 9.85027315,17.167511 9.79602812,17.0641709 C9.73526001,16.9484711 9.62162016,16.8647003 9.4925308,16.842041 C9.22130587,16.7946625 8.99711613,17.0106125 8.99265287,17.274971 C8.99196627,17.3144531 8.99780273,17.3570251 8.99265287,17.396164 C8.98544312,17.4507522 8.97789006,17.4349594 8.91300199,17.4466324 C8.75782011,17.4744415 8.60401151,17.5125503 8.45466609,17.5643921 C8.02963257,17.7127075 7.64991756,17.9822159 7.43396757,18.3845901 C7.27809908,18.6753845 7.2156143,19.0094375 7.22351074,19.3373108 C7.23690035,19.8653412 7.47207642,20.3178406 7.89779663,20.6299209 C8.10447697,20.7816696 8.33553316,20.8980561 8.57036593,20.9993362 C8.69327543,21.0525513 8.81790161,21.1016464 8.94321439,21.1490249 C8.99986271,21.1706543 8.98715971,21.1579514 8.99265287,21.2036133 C9.00672908,21.3189697 8.99265287,21.4449692 8.99265287,21.5606689 L8.99265287,22.134018 L8.99265287,23.0980683 L8.99265287,23.1550598 C8.72383113,23.1087112 8.47766874,23.0064011 8.25210571,22.8536225 C8.15185547,22.7859878 8.05744169,22.7101135 7.96131132,22.6366425 C7.84835815,22.5504685 7.71720891,22.4430084 7.5671768,22.4430084 Z M9.84477999,23.1056213 C9.84477999,22.6445389 9.84477999,22.1837998 9.84477999,21.7227173 C9.84477999,21.6557693 9.84477999,21.5884781 9.84477999,21.5215302 C10.1582336,21.6959381 10.3913498,21.9424438 10.3999329,22.318039 C10.4081726,22.6974106 10.1908493,22.9717255 9.84477999,23.1056213 Z M9.8907852,21.6004944 L9.8907852,23.0376435 C10.1850128,22.9113007 10.3577041,22.651062 10.3539277,22.3303985 C10.3504944,22.003212 10.1647568,21.7625427 9.8907852,21.6004944 Z M8.99265287,19.8983002 C8.66855619,19.7547913 8.35441594,19.5508575 8.35544584,19.1560364 C8.35613253,18.7838745 8.66546631,18.5771943 8.99265287,18.4889602 L8.99265287,19.8983002 Z M8.94664767,18.549385 C8.65791316,18.6352158 8.40179443,18.831253 8.40110783,19.1560364 C8.40042114,19.4986724 8.66168974,19.6967697 8.94664767,19.8275757 C8.94664767,19.4015122 8.94664767,18.9754487 8.94664767,18.549385 Z" id="Shape"></path>
                                        </g>
                                    </g>
                                </g>
                            </g>
                        </g>
                    </g>
                </g>
            </g>
        </g>
    </g>
</svg>