<?xml version="1.0" encoding="UTF-8"?>
<svg width="80px" height="80px" viewBox="0 0 80 80" version="1.1" xmlns="http://www.w3.org/2000/svg" xmlns:xlink="http://www.w3.org/1999/xlink">
    <!-- Generator: Sketch 51.3 (57544) - http://www.bohemiancoding.com/sketch -->
    <title>Group 13</title>
    <desc>Created with Sketch.</desc>
    <defs></defs>
    <g id="Page-1" stroke="none" stroke-width="1" fill="none" fill-rule="evenodd">
        <g id="Desktop-HD" transform="translate(-1350.000000, -1091.000000)">
            <g id="Các-tính-năng-của-MEDPRO" transform="translate(270.000000, 826.000000)">
                <g id="Group-12" transform="translate(40.000000, 265.000000)">
                    <g id="Right" transform="translate(1040.000000, 0.000000)">
                        <g id="Group-15-Copy-2">
                            <g id="Group-14">
                                <g id="Group-13">
                                    <circle id="Oval" fill="#EAEFF6" cx="40" cy="40" r="40"></circle>
                                    <g id="wallet" transform="translate(18.000000, 18.000000)" fill-rule="nonzero">
                                        <path d="M10.4026794,22.3846436 L3.99936674,26.7551422 C1.79042818,26.7551422 0,20.5938721 0,18.3849335 C0,17.2797775 0.447692871,16.2800217 1.17176054,15.5562973 C1.8954849,14.832573 2.89489746,14.3848801 3.99936674,14.3848801 L30.0458908,14.3848801 C31.9200898,14.3848801 33.4382629,15.9030533 33.4382629,17.7772522 L33.4382629,19.4784165" id="Path" fill="#CE6209"></path>
                                        <path d="M24.1970444,2.32772827 L24.1970444,22.3846436 L4.35710909,22.3846436 L4.35710909,2.32772827 C4.35710909,1.04198458 5.39909367,0 6.68552396,0 L21.8686294,0 C23.1543731,0 24.1970444,1.04198458 24.1970444,2.32772827 Z" id="Path" fill="#3C3F4D"></path>
                                        <path d="M22.2565842,5.24734497 L22.2565842,22.3846436 L6.29653931,22.3846436 L6.29653931,5.24734497 C6.29653931,4.59915161 6.82250977,4.07283785 7.47104643,4.07283785 L21.0824204,4.07283785 C21.7316436,4.07283785 22.2565842,4.59915161 22.2565842,5.24734497 Z" id="Path" fill="#C4E2F2"></path>
                                        <path d="M22.2569275,5.24700167 L22.2569275,26.5058899 C22.2569275,27.1547699 21.730957,27.680397 21.0827637,27.680397 L19.4217681,27.680397 C20.0703049,27.680397 20.5966187,27.1547699 20.5966187,26.5058899 L20.5966187,5.24700167 C20.5966187,4.59812162 20.0703049,4.07283785 19.4217681,4.07283785 L21.0827637,4.07283785 C21.730957,4.07283785 22.2569275,4.59812162 22.2569275,5.24700167 Z" id="Path" fill="#83B2C6"></path>
                                        <path d="M35.2235413,9.14337158 L15.7574844,9.14337158 C14.3478012,9.14337158 13.2048798,10.2859497 13.2048798,11.6959763 L13.2048798,22.6290894 C13.2048798,24.0387725 14.3478012,25.1816941 15.7574844,25.1816941 L35.2235413,25.1816941 C36.7509842,25.1816941 37.9890061,23.9433289 37.9890061,22.4158859 L37.9890061,11.9088364 C37.9890061,10.3813935 36.7509842,9.14337158 35.2235413,9.14337158 Z" id="Path" fill="#83B2C6"></path>
                                        <path d="M37.1866607,9.14337158 L17.720604,9.14337158 C16.3109207,9.14337158 15.1679993,10.2859497 15.1679993,11.6959763 L15.1679993,22.6290894 C15.1679993,24.0387725 16.3109207,25.1816941 17.720604,25.1816941 L37.1866607,25.1816941 C38.7137603,25.1816941 39.9521255,23.9433289 39.9521255,22.4158859 L39.9521255,11.9088364 C39.9521255,10.3813935 38.7137603,9.14337158 37.1866607,9.14337158 Z" id="Path" fill="#FF491F"></path>
                                        <polygon id="Path" fill="#2D303B" points="15.1679993 12.753067 39.9521255 12.753067 39.9521255 16.1073303 15.1679993 16.1073303"></polygon>
                                        <polygon id="Path" fill="#83B2C6" points="9.3229294 19.4780732 42.792778 19.4780732 42.792778 38.7371064 9.3229294 38.7371064"></polygon>
                                        <polygon id="Path" fill="#32CC77" points="11.5301514 19.4780732 45 19.4780732 45 38.7371064 11.5301514 38.7371064"></polygon>
                                        <path d="M42.1037292,32.2812652 L42.1037292,25.9342575 C40.1378632,25.9342575 38.5438156,24.34021 38.5438156,22.3743438 L17.9859924,22.3743438 C17.9859924,24.34021 16.3922882,25.9342575 14.4264221,25.9342575 L14.4264221,32.2812652 C16.3922882,32.2812652 17.9859924,33.8749695 17.9859924,35.8408355 L38.5438156,35.8408355 C38.5438156,33.8749695 40.1375198,32.2812652 42.1037292,32.2812652 Z" id="Path" fill="#1FB25E"></path>
                                        <path d="M37.7366638,29.7973252 L35.5297852,29.7973252 C35.1486969,29.7973252 34.8400498,29.488678 34.8400498,29.1075898 C34.8400498,28.7268448 35.1486969,28.4178543 35.5297852,28.4178543 L37.7366638,28.4178543 C38.1174087,28.4178543 38.4263992,28.7268448 38.4263992,29.1075898 C38.4263992,29.488678 38.1174087,29.7973252 37.7366638,29.7973252 Z" id="Path" fill="#32CC77"></path>
                                        <path d="M42.1037292,23.0633926 C41.4970779,23.0633926 41.1867142,22.2977829 41.6265107,21.8765259 C41.8259812,21.6856384 42.1308518,21.6320801 42.3831939,21.7443466 C42.6568222,21.8662262 42.8260803,22.1597671 42.7876282,22.4588013 C42.7440262,22.7997207 42.4491119,23.0633926 42.1037292,23.0633926 Z" id="Path" fill="#1FB25E"></path>
                                        <path d="M42.1037292,36.530571 C41.4850616,36.530571 41.1784744,35.7357788 41.6471099,35.3244781 C41.8568802,35.1408005 42.1641541,35.1002884 42.4134063,35.2252579 C42.6798248,35.3591538 42.8336334,35.6599045 42.7838516,35.9548188 C42.7282334,36.2823486 42.4367524,36.530571 42.1037292,36.530571 Z" id="Path" fill="#1FB25E"></path>
                                        <path d="M33.4382629,25.7770157 L33.4382629,41.6072846 C33.4382629,43.4814834 31.9200898,44.9996567 30.0458908,44.9996567 L3.99936674,44.9996567 C1.79042818,44.9996567 -2.84217094e-14,43.2092285 -2.84217094e-14,40.9996033 L-2.84217094e-14,18.3849335 C-2.84217094e-14,20.5938721 1.79042818,22.3846436 3.99936674,22.3846436 L30.0458908,22.3846436 C31.9200898,22.3846436 33.4382629,23.9038467 33.4382629,25.7770157 Z" id="Path" fill="#FF8E1D"></path>
                                        <path d="M4.35710909,22.3846436 L4.35710909,44.9996567 L3.99936674,44.9996567 C1.79042818,44.9996567 0,43.2092285 0,40.9996033 L0,18.3849335 C0,20.5938721 1.79042818,22.3846436 3.99936674,22.3846436 L4.35710909,22.3846436 Z" id="Path" fill="#E2720E"></path>
                                        <path d="M29.5765686,33.5124207 C29.5765686,34.7288132 28.7481308,35.7515717 27.6244355,36.0468292 C27.4108887,36.1027908 27.1866989,36.1333466 26.9556427,36.1333466 C25.5081939,36.1333466 24.3347168,34.9598694 24.3347168,33.5124207 C24.3347168,32.0646286 25.5081939,30.8914947 26.9556427,30.8914947 C27.1866989,30.8914947 27.4108887,30.9217071 27.6244355,30.9776687 C28.7481308,31.2729263 29.5765686,32.2956848 29.5765686,33.5124207 Z" id="Path" fill="#FFBE1D"></path>
                                        <path d="M29.5765686,33.5124207 C29.5765686,34.7288132 28.7481308,35.7515717 27.6244355,36.0468292 C26.5014267,35.7505417 25.6729888,34.7281265 25.6729888,33.5124207 C25.6729888,32.2963715 26.5014267,31.2739563 27.6244355,30.9776687 C28.7481308,31.2729263 29.5765686,32.2956848 29.5765686,33.5124207 Z" id="Path" fill="#FFE14D"></path>
                                    </g>
                                </g>
                            </g>
                        </g>
                    </g>
                </g>
            </g>
        </g>
    </g>
</svg>