<?xml version="1.0" encoding="UTF-8"?>
<svg width="80px" height="80px" viewBox="0 0 80 80" version="1.1" xmlns="http://www.w3.org/2000/svg" xmlns:xlink="http://www.w3.org/1999/xlink">
    <!-- Generator: Sketch 51.3 (57544) - http://www.bohemiancoding.com/sketch -->
    <title>Group 20</title>
    <desc>Created with Sketch.</desc>
    <defs></defs>
    <g id="Page-1" stroke="none" stroke-width="1" fill="none" fill-rule="evenodd">
        <g id="Desktop-HD" transform="translate(-490.000000, -1091.000000)">
            <g id="Các-tính-năng-của-MEDPRO" transform="translate(270.000000, 826.000000)">
                <g id="Group-12" transform="translate(40.000000, 265.000000)">
                    <g id="Left">
                        <g id="Group-15">
                            <g id="Group-14">
                                <g id="Group-20" transform="translate(180.000000, 0.000000)">
                                    <g id="Group-13">
                                        <circle id="Oval" fill="#EAEFF6" cx="40" cy="40" r="40"></circle>
                                        <g id="doctor-(1)" transform="translate(13.000000, 18.000000)" fill-rule="nonzero">
                                            <path d="M32.9585599,29.1070161 L32.7373963,38.3973387 L26.5437788,42.6001728 L20.4607949,38.5079724 L20.1289977,29.1070161 C20.1289977,29.1070161 22.1197811,27.2268664 21.5668203,25.3466129 L31.2995737,25.3466129 C30.9677765,27.2268664 32.9585599,29.1070161 32.9585599,29.1070161 Z" id="Path" fill="#F8B64C"></path>
                                            <path d="M46.3409793,44.9227535 L46.3409793,41.7154147 C46.3409793,38.618606 44.6819931,35.7430645 42.0276152,34.194712 L37.4930876,31.6508641 L32.9585599,29.1071198 L28.9769931,38.7292396 L27.4286406,32.2039286 L28.5346659,30.9873733 L24.5530991,30.9873733 L25.6591244,32.2039286 L24.1107719,38.7292396 L20.2398387,29.1071198 L15.7053111,31.6508641 L11.1707834,34.1946083 C8.51640553,35.7429608 6.85741935,38.618606 6.85741935,41.7153111 L6.85741935,44.9227535 L46.3409793,44.9227535 Z" id="Path" fill="#F2F2F2"></path>
                                            <g id="Group" transform="translate(16.278802, 14.619816)" fill="#F8B64C">
                                                <ellipse id="Oval" transform="translate(2.297223, 2.671472) rotate(-112.420650) translate(-2.297223, -2.671472) " cx="2.29722277" cy="2.67147176" rx="2.21192634" ry="1.54833807"></ellipse>
                                                <ellipse id="Oval" transform="translate(18.140741, 2.674409) rotate(112.420650) translate(-18.140741, -2.674409) " cx="18.1407406" cy="2.674409" rx="2.21192634" ry="1.54833807"></ellipse>
                                            </g>
                                            <path d="M35.3916705,13.6231797 C35.3916705,14.0656106 35.3916705,14.6185714 35.2810369,15.1715323 C34.6174424,20.3696544 30.9676728,28.7752189 26.5436751,28.7752189 C22.1196774,28.7752189 18.4699078,20.3696544 17.8063134,15.0608986 C17.6956797,14.6184677 17.6956797,14.0655069 17.6956797,13.623076 C17.6956797,8.75675115 21.6772465,4.77518433 26.5435714,4.77518433 C31.4098963,4.77518433 35.3916705,8.75685484 35.3916705,13.6231797 Z" id="Path" fill="#FFD15C"></path>
                                            <path d="M18.0276843,16.7199885 C17.8065207,15.5034332 17.9170507,13.844447 18.6912788,12.9595853 C18.6912788,12.9595853 18.0276843,7.31903226 22.1198848,7.65082949 C22.1198848,7.65082949 25.4378571,8.75685484 31.631371,7.65082949 C31.631371,7.65082949 34.1751152,7.54019585 33.732788,10.1945737 C33.732788,10.1945737 33.0691935,12.627788 34.3963825,13.1807488 L34.9493433,16.6093548 L35.5023041,14.0656106 C36.4976959,9.42044931 35.3916705,4.77528802 31.0783065,2.67387097 C30.9676728,2.67387097 30.9676728,2.67387097 30.9676728,2.67387097 C31.5206336,1.89964286 32.626659,2.23144009 32.626659,2.23144009 C25.3271198,-2.4137212 20.4607949,1.89964286 20.4607949,1.89964286 C15.2626728,6.65543779 16.921659,12.1853571 16.921659,12.1853571 C16.3686982,14.1761406 18.0276843,16.7199885 18.0276843,16.7199885 Z" id="Path" fill="#40596B"></path>
                                            <g id="Group" transform="translate(0.000000, 8.294931)" fill="#ACB3BA">
                                                <path d="M10.2857143,24.5724885 L14.8202419,22.0287442 L18.9124424,19.7061636 L18.9124424,19.59553 C19.3548733,19.0425691 19.6866705,18.3789747 20.0184677,17.7153802 C19.023076,16.1670276 18.138318,14.3974078 17.4747235,12.4066244 C16.7004954,11.9641935 16.0369009,11.1900691 15.7051037,10.3052074 C15.2626728,9.30981567 15.2626728,8.20379032 15.59447,7.20839862 C15.1520392,5.99184332 14.9308756,4.88581797 15.1520392,3.89042627 C15.0414055,3.2268318 14.8202419,1.78900922 15.0414055,0.130023041 C12.1658641,0.0193894009 10.5068779,1.56784562 10.5068779,1.56784562 C6.52531106,5.21761521 7.74186636,9.42034562 7.74186636,9.42034562 C7.52070276,10.3051037 7.8525,11.3004954 8.29482719,12.0747235 C7.96302995,12.4065207 7.85239631,13.1807488 8.18419355,13.8443433 C8.40535714,14.5079378 8.95842166,14.839735 9.40074885,14.9503687 C9.95370968,16.6093548 10.7279378,18.268341 11.6126959,19.59553 C11.9444931,21.0333525 10.5066705,22.4710714 10.5066705,22.4710714 L6.96753456,24.4618548 L3.31797235,26.3421083 C1.2165553,27.5586636 0,29.6600806 0,32.0932949 L0,33.1993203 L5.08759217,33.1993203 C5.19812212,29.6600806 7.18890553,26.3421083 10.2857143,24.5724885 Z" id="Path"></path>
                                                <path d="M49.7695853,26.3421083 L46.3409793,24.3513249 L42.8018433,22.3605415 C42.8018433,22.3605415 41.3640207,20.9227189 41.695818,19.485 C42.580576,18.1578111 43.3548041,16.4988249 43.907765,14.8398387 C44.3501959,14.7292051 44.9031567,14.2868779 45.1243203,13.7338134 C45.4561175,12.8490553 45.2349539,11.9641935 44.6818894,11.74303 L44.903053,10.8582719 C45.6772811,7.31913594 44.7924194,3.66936636 41.5850806,2.12091014 C41.474447,2.0102765 41.3639171,2.0102765 41.3639171,2.0102765 C41.8063479,1.45731567 42.5804724,1.67847926 42.5804724,1.67847926 C40.5896889,0.351290323 38.8200691,0.0194930876 37.2717166,0.0194930876 C37.7141475,1.89964286 37.6035138,4.00105991 37.1610829,6.21300691 L37.1610829,6.43417051 C37.8246774,7.42956221 38.045841,8.86738479 37.3822465,10.1945737 C37.0504493,11.0793318 36.3868548,11.8535599 35.6126267,12.2959908 C34.9490323,14.2867742 34.0642742,16.056394 33.0688825,17.6047465 C33.4006797,18.268341 33.732477,18.9319355 34.1749078,19.4848963 L34.1749078,19.59553 L42.6910023,24.4618548 C45.898341,26.2314747 47.7785945,29.549447 47.8891244,33.1992166 L53.0875576,33.1992166 L53.0875576,32.0931912 C53.0875576,29.7706106 51.7603687,27.5586636 49.7695853,26.3421083 Z" id="Path"></path>
                                            </g>
                                            <polygon id="Path" fill="#FF7058" points="40.1474654 39.1715668 38.0460484 39.1715668 38.0460484 37.0701498 36.6083295 37.0701498 36.6083295 39.1715668 34.5069124 39.1715668 34.5069124 40.6093894 36.6083295 40.6093894 36.6083295 42.7107028 38.0460484 42.7107028 38.0460484 40.6093894 40.1474654 40.6093894"></polygon>
                                        </g>
                                    </g>
                                </g>
                            </g>
                        </g>
                    </g>
                </g>
            </g>
        </g>
    </g>
</svg>