<?xml version="1.0" encoding="UTF-8"?>
<svg width="80px" height="80px" viewBox="0 0 80 80" version="1.1" xmlns="http://www.w3.org/2000/svg" xmlns:xlink="http://www.w3.org/1999/xlink">
    <!-- Generator: Sketch 51.3 (57544) - http://www.bohemiancoding.com/sketch -->
    <title>Group 13</title>
    <desc>Created with Sketch.</desc>
    <defs></defs>
    <g id="Page-1" stroke="none" stroke-width="1" fill="none" fill-rule="evenodd">
        <g id="Desktop-HD" transform="translate(-490.000000, -1621.000000)">
            <g id="Các-tính-năng-của-MEDPRO" transform="translate(270.000000, 826.000000)">
                <g id="Group-12" transform="translate(40.000000, 265.000000)">
                    <g id="Left">
                        <g id="Group-15-Copy" transform="translate(0.000000, 530.000000)">
                            <g id="Group-14">
                                <g id="Group-13" transform="translate(180.000000, 0.000000)">
                                    <circle id="Oval" fill="#EAEFF6" cx="40" cy="40" r="40"></circle>
                                    <g id="hospital" transform="translate(17.000000, 18.000000)" fill-rule="nonzero">
                                        <path d="M39.6735674,0.0474016854 L22.6314607,0.0474016854 L5.58935393,0.0474016854 C2.50242978,0.0474016854 0,2.54983146 0,5.63662921 L0,39.3734831 C0,42.4602809 2.50242978,44.9627107 5.58935393,44.9627107 L22.6314607,44.9627107 L33.8431601,44.9627107 L33.8431601,39.1323034 C33.8431601,36.0453792 36.3455899,33.5429494 39.4323876,33.5429494 L45.2629213,33.2585393 L45.2629213,5.63662921 C45.2629213,2.54983146 42.7604916,0.0474016854 39.6735674,0.0474016854 Z M34.2410815,23.4949298 C34.2410815,25.1293399 32.9161096,26.4545646 31.2808146,26.4545646 L26.5813483,26.4545646 L26.5813483,31.1542837 C26.5813483,32.7894522 25.2565028,34.1149298 23.6210815,34.1149298 L21.9113343,34.1149298 L21.6417135,34.1149298 C20.0067978,34.1149298 18.680941,32.7894522 18.680941,31.1542837 L18.680941,26.4545646 L13.9814747,26.4545646 C12.3473174,26.4545646 11.0218399,25.1293399 11.0218399,23.4949298 L11.0218399,21.5144242 C11.0218399,19.880014 12.3473174,18.5547893 13.9814747,18.5547893 L18.680941,18.5547893 L18.680941,13.8555758 C18.680941,12.2201545 20.0067978,10.8951826 21.6417135,10.8951826 L21.9113343,10.8951826 L23.6210815,10.8951826 C25.2565028,10.8951826 26.5813483,12.2201545 26.5813483,13.8555758 L26.5813483,18.5547893 L31.2808146,18.5547893 C32.9161096,18.5547893 34.2410815,19.880014 34.2410815,21.5144242 L34.2410815,23.4949298 Z" id="Shape" fill="#E74424"></path>
                                        <path d="M33.8326685,38.987191 L33.8326685,44.9627107 L45.2629213,33.2585393 L39.5611938,33.2585393 C36.3974157,33.2585393 33.8326685,35.8232865 33.8326685,38.987191 Z" id="Path" fill="#D43D21"></path>
                                        <path d="M31.2808146,18.5547893 L26.5813483,18.5547893 L26.5813483,13.8555758 C26.5813483,12.2201545 25.2565028,10.8951826 23.6210815,10.8951826 L21.9113343,10.8951826 L21.6417135,10.8951826 C20.0067978,10.8951826 18.680941,12.2201545 18.680941,13.8555758 L18.680941,18.5547893 L13.9814747,18.5547893 C12.3473174,18.5547893 11.0218399,19.880014 11.0218399,21.5144242 L11.0218399,23.4949298 C11.0218399,25.1293399 12.3473174,26.4545646 13.9814747,26.4545646 L18.680941,26.4545646 L18.680941,31.1542837 C18.680941,32.7894522 20.0067978,34.1149298 21.6417135,34.1149298 L21.9113343,34.1149298 L23.6210815,34.1149298 C25.2565028,34.1149298 26.5813483,32.7894522 26.5813483,31.1542837 L26.5813483,26.4545646 L31.2808146,26.4545646 C32.9161096,26.4545646 34.2410815,25.1293399 34.2410815,23.4949298 L34.2410815,21.5144242 C34.2410815,19.880014 32.9159831,18.5547893 31.2808146,18.5547893 Z" id="Path" fill="#F7F1E6"></path>
                                    </g>
                                </g>
                            </g>
                        </g>
                    </g>
                </g>
            </g>
        </g>
    </g>
</svg>